<svg width="179" height="130" xmlns="http://www.w3.org/2000/svg">
 <metadata id="metadata7">image/svg+xml</metadata>

 <g>
  <title>background</title>
  <rect fill="none" id="canvas_background" height="132" width="181" y="-1" x="-1"/>
 </g>
 <g>
  <title>Layer 1</title>
  <g stroke="null" display="inline" id="layer2">
   <path stroke="black" fill="black" fill-rule="evenodd" stroke-width="1.003" stroke-linecap="round" stroke-linejoin="round" stroke-miterlimit="4" id="path1916" d="m69.714968,38.414403c3.287011,0.435728 2.543381,0.746233 3.287011,-1.74299c0.662511,-2.217671 2.376694,-10.434392 2.174728,-15.686778c-0.147571,-3.837674 -0.113239,-2.793751 -2.996483,-4.049321c-2.97449,-1.295285 -7.686314,-2.051078 -8.508059,-2.051078c-0.821755,0 -8.620265,-0.686507 -12.857525,-0.871507c-2.495339,-0.108926 -3.595168,-0.653605 -3.697893,-3.0502c-0.110864,-2.586706 -0.114716,-3.859439 0,-6.536153c0.102725,-2.396595 -0.205432,-3.70383 -4.108756,-3.485954c-9.252442,0.516456 -25.828511,0.575674 -32.459253,0.871482c-1.645258,0.073405 -3.625261,-0.653605 -3.28702,3.921707c1.140716,15.43005 0.44841,41.875888 1.352973,57.953925c0.122904,2.184515 1.224083,6.411158 4.880674,6.355678c2.243817,-0.034071 13.378451,0.789559 18.418957,1.179596c2.956957,0.228836 2.705946,1.945356 2.705946,2.816864c0,0.871482 0.007453,8.436734 0.049847,12.412269c0.035239,3.305479 1.051198,3.507896 2.996473,5.123221c0.966971,0.802933 3.30829,3.199121 5.752276,4.357436c1.132934,0.536924 2.414134,1.321652 4.299609,1.487711c4.44328,0.391309 5.352516,0.314496 7.736161,0.255253c2.182481,-0.054259 3.204048,-0.897925 3.577538,3.635459c0.555345,6.740707 0.637023,17.179727 0.531218,23.125408c-0.049847,2.801354 -0.265232,2.845545 2.755802,2.869725c10.033435,0.088788 26.601201,0.907663 37.510119,0.308114c3.201548,-0.175949 5.202058,-0.234099 5.511576,-8.406757c0.433667,-11.450575 -0.213918,-16.582771 0,-24.146422c0.133649,-4.725378 3.506528,-6.123817 5.992957,-6.355653c9.756414,-0.909748 24.739091,-1.786723 30.404871,-1.74299c2.526022,0.019502 2.921486,-1.479015 4.569495,-4.102182c1.509668,-2.402951 0.742741,-1.159027 1.763846,-3.433093c0.954564,-2.125857 0.966874,-2.701251 1.062445,-4.920803c0.120345,-2.794947 -0.187599,-2.726881 0,-4.718411c0.176622,-1.874977 0.300906,-2.253445 1.934038,-2.922586c2.127015,-0.871482 1.869593,-0.781245 4.54029,-0.563368c2.670697,0.217877 3.643325,1.257858 6.142507,1.742964c3.106498,0.603033 4.141659,0.379689 5.992957,-0.563368c0.968081,-0.493141 2.592485,-0.988798 4.689831,-2.051078c2.224575,-1.126761 2.430016,-2.309002 2.465265,-5.228943c0.139606,-11.564738 -0.017446,-29.704074 0,-40.95991c0.002134,-1.379344 0.177578,-3.625086 -2.315724,-3.99646c-3.75137,-0.55874 -9.587815,-1.824836 -13.828811,-2.103965c-3.878406,-0.255253 -4.727223,-1.859645 -5.461739,-2.614446c-1.939126,-1.9927 -1.950875,-2.078157 -3.577548,-4.102182c-1.473308,-1.833227 -2.351331,-1.960866 -5.221048,-1.998243c-6.964001,-0.090721 -19.876538,0.141039 -22.81826,0c-2.869737,-0.137581 -2.209977,0.202392 -2.365562,3.741207c-0.13699,3.115621 -0.526217,6.742258 -0.290537,7.949111c0.531228,2.720194 2.490184,2.396595 3.527701,2.561611c2.143939,0.340965 1.023904,0.257262 4.108766,0.563368c3.614931,0.358712 5.175421,1.332967 8.607763,1.795851c3.214379,0.433465 4.249762,0.607152 4.54029,3.019231c0.104125,0.864464 2.060948,10.704723 1.983894,14.921018c-0.060177,3.292232 -0.836363,3.937166 -1.64351,4.102182c-2.43745,0.498277 -5.729761,0.203511 -8.267378,0.255253c-1.944368,0.039639 -2.174728,-0.242032 -2.415409,-1.637242c-0.469785,-2.723245 -0.581074,-7.693858 -0.581074,-8.565365c0,-2.412079 -0.726425,-1.908463 -1.834344,-1.998217c-2.329907,-0.188789 -6.537083,-0.157388 -9.329814,-0.255253c-1.508567,-0.052861 -3.314082,0.118944 -3.096177,2.816838c0.514679,6.37246 0.984079,16.730396 1.64351,22.456293c0.155585,1.351045 -0.099539,1.415577 2.755783,1.434875c1.58816,0.01073 2.608347,0.094611 6.914415,-0.308114c1.452464,-0.135852 2.270145,-0.554697 2.365562,1.945356c0.087954,2.304476 0.049847,5.079412 0.049847,6.822376c0,2.051104 1.21803,4.66555 -1.352973,4.867942c-4.875827,0.383833 -16.54781,1.332992 -17.356512,1.487736c-4.455348,0.852387 -4.393452,-1.259333 -4.590137,-4.049321c-0.061268,-0.869067 -0.473029,-6.090585 -0.581074,-9.331125c-0.058024,-1.740701 -3.477844,-2.869699 -4.299599,-2.869699c-0.821755,0 -14.505978,-1.257731 -20.062458,-1.795851c-2.932029,-0.283959 -2.996483,1.329128 -3.287011,4.049321c-0.092491,0.865939 0.061124,5.794192 0.290528,7.89625c0.314664,2.883252 1.288712,2.259624 3.237164,2.306357c1.558414,0.037376 1.850023,0.111977 4.158622,0.308114c1.631036,0.138573 4.401369,0.995155 4.399293,5.484171c-0.003707,7.460522 0.312308,15.758073 0.24069,21.892926c-0.035249,3.019231 -1.593663,3.124978 -2.996483,3.124978c-0.821755,0 -5.106197,-0.455917 -7.927004,-0.563393c-1.229036,-0.04681 -2.455591,-1.226508 -2.755783,-4.357436c-0.269818,-2.814092 -0.049847,-8.204365 -0.049847,-9.075847c0,-2.720194 -0.912895,-2.816864 -3.187326,-2.816864c-0.821745,0 -15.667374,-0.651571 -16.48491,-0.563368c-2.855487,0.308114 -3.818229,-0.563368 -4.108766,-3.538815c-0.169285,-1.733709 -0.543798,-3.871516 -0.290528,-6.153286c0.180513,-1.626283 -0.260048,-2.534252 2.174718,-2.816838c2.868849,-0.332956 6.449959,-1.451606 7.976851,-2.359218c0.827934,-0.492124 0.894387,-1.176393 0.821755,-2.614446c-0.181353,-3.590582 -0.218465,-8.169734 -1.112292,-11.765097c-0.906851,-3.64774 -2.60658,-1.609706 -6.283494,-0.871482c-3.357297,0.674048 -4.34432,1.518197 -7.926994,-0.127639c-2.744787,-1.260884 -7.009851,-2.769902 -3.868085,-8.151504c1.80677,-3.094848 5.25902,-12.023782 6.042813,-13.943789c1.058699,-2.593444 2.054383,-2.069792 4.108766,-1.307236c1.941472,0.720629 2.567981,0.544679 4.108766,1.307236c1.540785,0.762556 1.830424,0.984145 2.054383,2.178718c0.102716,0.547883 0.024146,0.150803 0,2.178718c-0.018344,1.54047 -0.410873,2.396595 2.054383,2.614472c0.973236,0.085991 5.363599,1.364623 8.217532,1.742964z"/>
  </g>
 </g>
</svg>