<svg version="1.1" xmlns="http://www.w3.org/2000/svg" xmlns:xlink="http://www.w3.org/1999/xlink" viewBox="0 0 127 30">
<g>
	<path fill="#15201E" d="M96.8,3.1h3.2c0.4,0,0.7,0.3,0.7,0.7v4.6c0,0.4,0.3,0.7,0.7,0.7h5.7c0.4,0,0.7,0.3,0.7,0.7v2.4
		c0,0.4-0.3,0.7-0.7,0.7h-6.4v8.2c0,1.6,0.3,2.8,0.8,3.4c0.5,0.7,1.4,1,2.6,1c0.8,0,1.6-0.1,2.2-0.3c0.3-0.1,0.6-0.2,0.8-0.2
		c0.4-0.1,0.8,0.1,0.9,0.5l0.5,2.3c0.1,0.4-0.1,0.7-0.5,0.8c-0.4,0.2-0.9,0.3-1.5,0.5c-0.9,0.2-1.9,0.4-3.1,0.4
		c-1.4,0-2.6-0.2-3.6-0.6c-1-0.4-1.7-0.9-2.3-1.7c-0.6-0.7-1-1.6-1.2-2.6c-0.2-1-0.3-2.2-0.3-3.5V3.8C96.1,3.4,96.4,3.1,96.8,3.1z"
		/>
	<path fill="#15201E" d="M118.9,8.7c1.5,0,2.8,0.2,3.9,0.6c1,0.4,1.9,0.9,2.5,1.6c0.6,0.7,1.1,1.5,1.3,2.5s0.4,2.1,0.4,3.2l0,9.4
		c0,1.6-1.2,3-2.8,3.2c-0.2,0-0.3,0-0.5,0.1c-1.4,0.2-3.1,0.3-4.9,0.3c-1.2,0-2.3-0.1-3.3-0.3c-1-0.2-1.8-0.6-2.5-1.1
		c-0.7-0.5-1.3-1.2-1.6-2c-0.4-0.8-0.6-1.8-0.6-3c0-1.1,0.2-2.1,0.7-2.9c0.4-0.8,1.1-1.4,1.8-1.9c0.8-0.5,1.7-0.9,2.7-1.1
		c1-0.2,2.1-0.3,3.2-0.3c0.5,0,1,0,1.6,0.1c0.6,0.1,1.2,0.2,1.8,0.3v-0.8c0-0.5-0.1-1-0.2-1.5c-0.1-0.5-0.4-0.9-0.7-1.3
		c-0.3-0.4-0.7-0.7-1.3-0.9c-0.5-0.2-1.2-0.3-2-0.3c-1.1,0-2.1,0.1-3,0.2c-0.5,0.1-1,0.2-1.4,0.3c-0.4,0.1-0.8-0.2-0.9-0.6l-0.4-2.3
		c-0.1-0.4,0.2-0.7,0.5-0.8c0.5-0.1,1.2-0.3,2-0.4C116.4,8.8,117.6,8.7,118.9,8.7z M119.3,26c1.4,0,2.5-0.1,3.3-0.2v-5.1
		c-0.3-0.1-0.6-0.2-1.1-0.2c-0.5-0.1-1-0.1-1.6-0.1c-0.5,0-1,0-1.6,0.1c-0.5,0.1-1,0.2-1.4,0.4c-0.4,0.2-0.8,0.5-1,0.9
		c-0.3,0.4-0.4,0.8-0.4,1.4c0,1.1,0.3,1.9,1,2.3C117.1,25.8,118.1,26,119.3,26z"/>
	<path fill="#D72738" d="M48.4,20c0,1.5-0.2,2.9-0.7,4.2c-0.5,1.2-1.1,2.3-1.9,3.2c-0.8,0.9-1.9,1.6-3.1,2c-1.2,0.5-2.6,0.7-4.1,0.7
		c-1.5,0-2.9-0.1-4.2-0.3c-0.3,0-0.5-0.1-0.8-0.1C32.1,29.3,31,28,31,26.5l0-25.8c0-0.3,0.2-0.6,0.6-0.7h3.6C35.7-0.1,36,0.3,36,0.7
		v9.1c0,0,2.4,0,2.5,0c3.4,0,4.1,0.3,5.2,0.8c1.1,0.5,1.8,1.2,2.5,2.1c0.7,0.9,1.3,1.9,1.6,3.2C48.2,17.1,48.4,18.5,48.4,20z
		 M43.8,19.9c0-1.9-0.3-3.4-1-4.5c-0.7-1.1-1.8-1.7-3.3-1.7c-0.7,0-3.4,0-3.4,0v12.1c0.3,0.1,0.7,0.1,1.1,0.2c0.5,0.1,1,0.1,1.7,0.1
		c1.5,0,2.7-0.6,3.6-1.7C43.4,23.4,43.8,21.8,43.8,19.9z"/>
	<path fill="#15201E" d="M26.7,15.1C26.4,14,26,13,25.3,12.3c-0.7-0.8-1.6-1.4-2.8-1.8c-1.2-0.4-2.6-0.7-4.3-0.7c-0.7,0-3.1,0-5.2,0
		c-1.9,0-3.4,1.5-3.4,3.3v16c0,0.4,0.3,0.7,0.7,0.7h3.4c0.4,0,0.7-0.3,0.7-0.7V13.8c0,0,3.5-0.1,4.9,0.1c0.3,0,0.7,0.1,0.7,0.2
		c0.6,0.2,0.9,0.6,1.3,1c0.3,0.5,0.6,1.1,0.7,1.8c0.1,0.7,0.2,1.6,0.2,2.7V29c0,0.4,0.3,0.7,0.7,0.7h3.4c0.4,0,0.7-0.3,0.7-0.7V18.8
		C27.2,17.4,27,16.2,26.7,15.1z"/>
	<path fill="#15201E" d="M90.8,15.1c-0.3-1.1-0.8-2.1-1.5-2.8c-0.7-0.8-1.6-1.4-2.8-1.8C85.4,10,84,9.8,82.3,9.8c-0.7,0-3.1,0-5.2,0
		c-1.9,0-3.4,1.5-3.4,3.3v16c0,0.4,0.3,0.7,0.7,0.7h3.4c0.4,0,0.7-0.3,0.7-0.7V13.8c0,0,3.5-0.1,4.9,0.1c0.3,0,0.7,0.1,0.7,0.2
		c0.6,0.2,0.9,0.6,1.3,1c0.3,0.5,0.6,1.1,0.7,1.8c0.1,0.7,0.2,1.6,0.2,2.7V29c0,0.4,0.3,0.7,0.7,0.7h3.4c0.4,0,0.7-0.3,0.7-0.7V18.8
		C91.2,17.4,91.1,16.2,90.8,15.1z"/>
	<path fill="#15201E" d="M67,12.3c-1.6-1.6-3.8-2.5-6.6-2.5c-1.2,0-2.4,0.2-3.5,0.6c-1.1,0.4-2.2,1.1-3.1,1.9
		c-0.9,0.8-1.6,1.9-2.1,3.2c-0.5,1.3-0.8,2.8-0.8,4.4c0,1.4,0.2,2.8,0.6,4c0.4,1.2,1.1,2.3,1.9,3.2c0.9,0.9,2,1.6,3.3,2.1
		c1.3,0.5,2.9,0.8,4.7,0.8c0.7,0,1.4,0,2.1-0.1c0.7-0.1,1.3-0.2,1.9-0.3c0.6-0.1,1.1-0.2,1.6-0.4c0.2-0.1,0.3-0.1,0.5-0.2
		c0.3-0.1,0.5-0.5,0.5-0.8l-0.4-2.2c-0.1-0.4-0.5-0.7-0.9-0.6c-0.4,0.1-0.9,0.2-1.5,0.4c-1,0.2-2,0.3-3.2,0.3c-2,0-3.5-0.4-4.5-1.3
		c-1-0.8-1.6-2-1.7-3.6h11.8c1,0,1.8-0.7,1.8-1.7v0C69.4,16.4,68.6,13.9,67,12.3z M65.4,18l-9.6,0c0-2.6,1.9-4.8,4.8-4.8
		C63.4,13.3,65.6,15.4,65.4,18z"/>
	<g>
		<path fill="#15201E" d="M0.8,29.8H4c0.5,0,0.8-0.3,0.8-0.8V10.9c0-0.5-0.4-0.7-1.1-0.7H0.6c-0.4,0-0.6,0.4-0.6,0.7V29
			C0,29.4,0.4,29.8,0.8,29.8z"/>
		<path fill="#15201E" d="M3.6,7.2H1.2c-0.6,0-1.1-0.5-1.1-1.1V4.3c0-0.6,0.5-1.1,1.1-1.1h2.4c0.6,0,1.1,0.5,1.1,1.1v1.8
			C4.7,6.7,4.2,7.2,3.6,7.2z"/>
	</g>
</g>
</svg>
